<?xml version="1.0" encoding="UTF-8"?>
<svg xmlns="http://www.w3.org/2000/svg" xmlns:xlink="http://www.w3.org/1999/xlink" width="512px" height="512px" viewBox="0 0 512 512" version="1.1">
<g id="surface1">
<path style=" stroke:none;fill-rule:nonzero;fill:rgb(3.137255%,18.82353%,25.490198%);fill-opacity:1;" d="M 76.042969 221.71875 L 76.042969 244.789062 C 85.363281 244.78125 93.765625 250.390625 97.335938 259 C 100.90625 267.605469 98.941406 277.515625 92.355469 284.109375 C 82.582031 292.355469 72.019531 299.625 60.824219 305.808594 C 39.519531 317.984375 27.742188 320.386719 22.964844 320.8125 C 23.453125 315.578125 26.222656 304.714844 35.65625 287.335938 C 42.390625 274.613281 50.449219 262.636719 59.699219 251.605469 C 64.015625 247.238281 69.902344 244.78125 76.042969 244.789062 L 76.042969 221.71875 C 63.824219 221.664062 52.09375 226.507812 43.476562 235.167969 C 31.515625 247.128906 -16.144531 316.644531 5.617188 338.253906 C 9.898438 342.167969 15.589844 344.167969 21.382812 343.792969 C 50.476562 343.792969 98.929688 310.039062 108.699219 300.269531 C 121.871094 287.09375 125.800781 267.273438 118.648438 250.070312 C 111.496094 232.867188 94.675781 221.671875 76.042969 221.71875 Z M 76.042969 221.71875 "/>
<path style=" stroke:none;fill-rule:nonzero;fill:rgb(3.137255%,18.82353%,25.490198%);fill-opacity:1;" d="M 276.273438 402.835938 C 267.65625 394.15625 255.910156 389.296875 243.679688 389.351562 L 243.679688 412.363281 C 252.992188 412.367188 261.386719 417.980469 264.949219 426.585938 C 268.511719 435.191406 266.542969 445.09375 259.960938 451.683594 C 250.191406 459.921875 239.640625 467.191406 228.460938 473.382812 C 207.15625 485.558594 195.378906 487.933594 190.601562 488.386719 C 191.085938 483.125 193.855469 472.257812 203.320312 454.910156 C 210.046875 442.1875 218.09375 430.210938 227.335938 419.179688 C 231.65625 414.851562 237.53125 412.429688 243.648438 412.453125 L 243.648438 389.351562 C 231.4375 389.316406 219.71875 394.171875 211.113281 402.835938 C 199.152344 414.796875 151.492188 484.28125 173.128906 505.917969 C 177.417969 509.84375 183.125 511.84375 188.925781 511.457031 C 217.992188 511.457031 266.472656 477.707031 276.214844 467.9375 C 294.183594 449.964844 294.210938 420.839844 276.273438 402.835938 Z M 276.273438 402.835938 "/>
<path style=" stroke:none;fill-rule:nonzero;fill:rgb(23.921569%,86.274511%,51.764709%);fill-opacity:1;" d="M 425.832031 163.800781 C 422.96875 160.949219 422.109375 156.652344 423.652344 152.917969 C 425.195312 149.183594 428.835938 146.746094 432.878906 146.746094 C 436.917969 146.746094 440.5625 149.183594 442.105469 152.917969 C 443.648438 156.652344 442.785156 160.949219 439.921875 163.800781 C 436.042969 167.601562 429.835938 167.601562 425.953125 163.800781 M 348.558594 86.527344 C 344.675781 82.636719 344.683594 76.339844 348.570312 72.457031 C 352.453125 68.574219 358.75 68.574219 362.636719 72.457031 C 366.523438 76.339844 366.527344 82.636719 362.648438 86.527344 L 362.496094 86.527344 C 358.625 90.324219 352.429688 90.324219 348.558594 86.527344 M 319.523438 360.804688 L 447.347656 232.980469 C 473.003906 202.953125 481.742188 161.992188 470.570312 124.113281 L 508.828125 113.886719 C 509.902344 113.636719 510.832031 112.960938 511.40625 112.015625 C 511.976562 111.070312 512.144531 109.933594 511.871094 108.863281 C 511.613281 107.785156 510.933594 106.859375 509.980469 106.285156 C 509.03125 105.714844 507.894531 105.546875 506.820312 105.820312 L 468.167969 116.199219 C 455.539062 83.089844 429.390625 56.9375 396.277344 44.3125 L 406.65625 5.691406 C 406.933594 4.617188 406.765625 3.476562 406.195312 2.527344 C 405.621094 1.578125 404.691406 0.898438 403.613281 0.636719 C 402.539062 0.34375 401.390625 0.503906 400.4375 1.078125 C 399.484375 1.65625 398.804688 2.59375 398.5625 3.683594 L 388.214844 41.785156 C 350.335938 30.640625 309.394531 39.386719 279.378906 65.039062 L 151.550781 192.867188 Z M 319.523438 360.804688 "/>
<path style=" stroke:none;fill-rule:nonzero;fill:rgb(21.568628%,74.901962%,43.137255%);fill-opacity:1;" d="M 192.578125 234.011719 L 289.085938 137.625 C 306.433594 119.925781 306.289062 91.558594 288.765625 74.035156 C 271.242188 56.507812 242.875 56.367188 225.175781 73.710938 L 199.546875 99.339844 L 128.695312 170.101562 "/>
<path style=" stroke:none;fill-rule:nonzero;fill:rgb(21.568628%,74.901962%,43.137255%);fill-opacity:1;" d="M 341.007812 382.414062 L 437.367188 286.027344 C 454.710938 268.328125 454.570312 239.957031 437.046875 222.433594 C 419.519531 204.910156 391.152344 204.765625 373.453125 222.113281 L 277.035156 318.53125 "/>
<path style=" stroke:none;fill-rule:nonzero;fill:rgb(25.882354%,52.156866%,95.686275%);fill-opacity:1;" d="M 279.5625 128.253906 C 296.90625 110.550781 296.765625 82.183594 279.238281 64.660156 C 261.714844 47.136719 233.347656 46.992188 215.648438 64.339844 L 190.050781 89.902344 L 116.582031 163.527344 L 103.222656 176.886719 C 100.0625 180.046875 100.0625 185.167969 103.222656 188.332031 L 155.601562 240.800781 C 158.769531 243.941406 163.875 243.941406 167.042969 240.800781 L 180.40625 227.4375 Z M 279.5625 128.253906 "/>
<path style=" stroke:none;fill-rule:nonzero;fill:rgb(25.882354%,52.156866%,95.686275%);fill-opacity:1;" d="M 447.347656 295.828125 C 464.695312 278.125 464.550781 249.757812 447.027344 232.234375 C 429.503906 214.710938 401.136719 214.566406 383.4375 231.914062 L 357.839844 257.507812 L 284.21875 331.132812 L 270.828125 344.492188 C 267.667969 347.652344 267.667969 352.773438 270.828125 355.9375 L 323.296875 408.375 C 324.804688 409.898438 326.859375 410.753906 329.003906 410.753906 C 331.144531 410.753906 333.199219 409.898438 334.710938 408.375 L 348.101562 395.042969 Z M 447.347656 295.828125 "/>
</g>
</svg>
